<mxfile host="app.diagrams.net" modified="2024-05-13T12:56:29.280Z" agent="Mozilla/5.0 (Windows NT 10.0; Win64; x64; rv:125.0) Gecko/20100101 Firefox/125.0" etag="Z3XB4G0wQWGyx3p9splU" version="24.4.0" type="github">
  <diagram name="PÃ¡gina-1" id="UMBhfZdhM2WIyUonaC6K">
    <mxGraphModel dx="1434" dy="746" grid="1" gridSize="10" guides="1" tooltips="1" connect="1" arrows="1" fold="1" page="1" pageScale="1" pageWidth="827" pageHeight="1169" math="0" shadow="0">
      <root>
        <mxCell id="0" />
        <mxCell id="1" parent="0" />
        <mxCell id="JToZfJERb0RtRA_SCI_2-1" value="" style="swimlane;startSize=0;" parent="1" vertex="1">
          <mxGeometry x="40" y="170" width="200" height="200" as="geometry" />
        </mxCell>
        <mxCell id="sUMkyv6crgrHNItBeaA--1" value="" style="points=[[0.005,0.09,0],[0.08,0,0],[0.76,0.25,0],[1,0.92,0],[0.91,0.995,0],[0.57,0.995,0],[0.045,0.955,0],[0.005,0.43,0]];verticalLabelPosition=bottom;sketch=0;html=1;verticalAlign=top;aspect=fixed;align=center;pointerEvents=1;shape=mxgraph.cisco19.3g_4g_indicator;fillColor=#005073;strokeColor=none;" parent="1" vertex="1">
          <mxGeometry x="130" y="480" width="50" height="50" as="geometry" />
        </mxCell>
        <mxCell id="YnzvHNwbn8uObbM0psug-1" value="" style="html=1;verticalLabelPosition=bottom;verticalAlign=top;outlineConnect=0;shadow=0;dashed=0;shape=mxgraph.rack.hpe_aruba.gateways_controllers.aruba_7024_mobility_controller_front;" vertex="1" parent="1">
          <mxGeometry x="380" y="240" width="142" height="15" as="geometry" />
        </mxCell>
      </root>
    </mxGraphModel>
  </diagram>
</mxfile>
